<svg xmlns="http://www.w3.org/2000/svg" width="1700" height="960" viewBox="90 -180 1700 960">
  <g id="Banner_Graphic" data-name="Banner Graphic" transform="translate(76.912 -192.598)">
    <rect id="Rectangle_25" data-name="Rectangle 25" width="188" height="160" transform="translate(236.938 867.222)" fill="rgba(136,207,224,0.29)"/>
    <rect id="Rectangle_26" data-name="Rectangle 26" width="188" height="160" transform="translate(340.938 912.222)" fill="rgba(136,207,224,0.29)"/>
    <rect id="Rectangle_27" data-name="Rectangle 27" width="203" height="205" transform="translate(130.832 807.803) rotate(21)" fill="rgba(136,207,224,0.29)"/>
    <rect id="Rectangle_28" data-name="Rectangle 28" width="88" height="101" transform="matrix(0.777, 0.629, -0.629, 0.777, 636.523, 893.786)" fill="rgba(136,207,224,0.29)"/>
    <rect id="Rectangle_29" data-name="Rectangle 29" width="188" height="160" transform="translate(723.525 927.372) rotate(-24)" fill="rgba(136,207,224,0.29)"/>
    <rect id="Rectangle_30" data-name="Rectangle 30" width="108" height="106" transform="translate(452.68 847.817) rotate(56)" fill="rgba(136,207,224,0.29)"/>
    <rect id="Rectangle_31" data-name="Rectangle 31" width="211" height="188" transform="matrix(0.766, -0.643, 0.643, 0.766, 392.197, 951.028)" fill="rgba(136,207,224,0.29)"/>
    <rect id="Rectangle_32" data-name="Rectangle 32" width="136" height="111" transform="translate(638.938 884.222)" fill="rgba(136,207,224,0.29)"/>
    <rect id="Rectangle_33" data-name="Rectangle 33" width="203" height="205" transform="translate(963.832 819.803) rotate(21)" fill="rgba(136,207,224,0.29)"/>
    <rect id="Rectangle_38" data-name="Rectangle 38" width="92" height="137" transform="translate(1265.438 979.679) rotate(-62)" fill="rgba(136,207,224,0.29)"/>
    <rect id="Rectangle_34" data-name="Rectangle 34" width="146" height="165" transform="translate(18.711 838.573) rotate(21)" fill="rgba(136,207,224,0.29)"/>
    <rect id="Rectangle_35" data-name="Rectangle 35" width="164" height="170" transform="matrix(0.995, 0.105, -0.105, 0.995, 1144.258, 878.438)" fill="rgba(136,207,224,0.29)"/>
    <rect id="Rectangle_36" data-name="Rectangle 36" width="110" height="107" transform="translate(1044.66 950.431) rotate(-28)" fill="rgba(136,207,224,0.29)"/>
    <rect id="Rectangle_37" data-name="Rectangle 37" width="103" height="104" transform="matrix(0.656, -0.755, 0.755, 0.656, 859.029, 897.05)" fill="rgba(136,207,224,0.29)"/>
    <rect id="Rectangle_39" data-name="Rectangle 39" width="92" height="94" transform="matrix(0.766, -0.643, 0.643, 0.766, -73.52, 251.734)" fill="rgba(136,207,224,0.29)"/>
    <rect id="Rectangle_40" data-name="Rectangle 40" width="139" height="122" transform="translate(-76.912 405.697) rotate(-58)" fill="rgba(136,207,224,0.29)"/>
    <rect id="Rectangle_41" data-name="Rectangle 41" width="89" height="92" transform="translate(12.279 463.783) rotate(-84)" fill="rgba(136,207,224,0.29)"/>
    <rect id="Rectangle_42" data-name="Rectangle 42" width="89" height="92" transform="translate(-61.51 505.102) rotate(-63)" fill="rgba(136,207,224,0.29)"/>
    <rect id="Rectangle_43" data-name="Rectangle 43" width="89" height="92" transform="matrix(-0.438, -0.899, 0.899, -0.438, 38.842, 575.497)" fill="rgba(136,207,224,0.29)"/>
    <rect id="Rectangle_44" data-name="Rectangle 44" width="114" height="116" transform="matrix(0.309, -0.951, 0.951, 0.309, -40.547, 624.219)" fill="rgba(136,207,224,0.29)"/>
    <rect id="Rectangle_45" data-name="Rectangle 45" width="138" height="141" transform="matrix(-0.052, -0.999, 0.999, -0.052, -5.967, 765.977)" fill="rgba(136,207,224,0.29)"/>
    <rect id="Rectangle_46" data-name="Rectangle 46" width="196" height="162" transform="translate(83.338 945.443) rotate(-122)" fill="rgba(136,207,224,0.29)"/>
    <rect id="Rectangle_47" data-name="Rectangle 47" width="138" height="118" transform="translate(197.297 936.173) rotate(-143)" fill="rgba(136,207,224,0.29)"/>
  </g>
</svg>
