<svg enable-background="new 0 0 512 512" viewBox="0 0 512 512" xmlns="http://www.w3.org/2000/svg"><g fill="#3ab514"><path d="m468.04 91.687-205-90c-5.147-2.26-11.007-2.249-16.146.029l-203 90c-7.231 3.206-11.894 10.373-11.894 18.284v158c0 59.712 23.597 120.752 64.741 167.468 20.695 23.498 44.553 42.092 70.912 55.266 28.234 14.111 57.958 21.266 88.347 21.266 42.552 0 83.967-13.773 119.769-39.829 8.931-6.5 10.902-19.009 4.402-27.94s-19.009-10.901-27.94-4.402c-28.918 21.046-62.194 32.171-96.231 32.171-96.299 0-184-97.234-184-204v-144.99l183.04-81.15 184.96 81.202v144.938c0 36.829-10.58 74.1-30.597 107.782-5.643 9.496-2.52 21.768 6.976 27.411 9.497 5.643 21.768 2.52 27.411-6.976 23.689-39.863 36.21-84.199 36.21-128.217v-158c0-7.936-4.693-15.122-11.96-18.313z"/><path d="m351.385 157.503-124.006 154.948-69.515-66.865c-7.961-7.657-20.622-7.412-28.279.549s-7.412 20.622.549 28.279l70.485 67.798c.028.027.057.054.085.082 7.299 6.939 16.746 10.707 26.754 10.707.537 0 1.074-.011 1.612-.033 10.601-.426 20.337-5.015 27.415-12.919.246-.275.484-.557.715-.845l125.415-156.708c6.902-8.624 5.505-21.21-3.118-28.112-8.625-6.902-21.21-5.506-28.112 3.119z"/></g></svg>